<mxfile host="app.diagrams.net" modified="2024-05-27T20:14:10.756Z" agent="Mozilla/5.0 (Windows NT 10.0; Win64; x64) AppleWebKit/537.36 (KHTML, like Gecko) Chrome/125.0.0.0 Safari/537.36" etag="6_1oNxN7I9N6iyz17unI" version="24.4.9" type="github">
  <diagram name="PÃ¡gina-1" id="rFBd4cuhRMdDfm9zUxjN">
    <mxGraphModel dx="1050" dy="1726" grid="1" gridSize="10" guides="1" tooltips="1" connect="1" arrows="1" fold="1" page="1" pageScale="1" pageWidth="827" pageHeight="1169" math="0" shadow="0">
      <root>
        <mxCell id="0" />
        <mxCell id="1" parent="0" />
        <mxCell id="2m0mP7ySd1EQTY95ZOPa-7" value="Ong" style="swimlane;fontStyle=1;align=center;verticalAlign=top;childLayout=stackLayout;horizontal=1;startSize=26;horizontalStack=0;resizeParent=1;resizeParentMax=0;resizeLast=0;collapsible=1;marginBottom=0;whiteSpace=wrap;html=1;rounded=1;" vertex="1" parent="1">
          <mxGeometry x="210" y="320" width="160" height="216" as="geometry" />
        </mxCell>
        <mxCell id="2m0mP7ySd1EQTY95ZOPa-14" value="+ PK Id: Guid" style="text;strokeColor=none;fillColor=none;align=left;verticalAlign=top;spacingLeft=4;spacingRight=4;overflow=hidden;rotatable=0;points=[[0,0.5],[1,0.5]];portConstraint=eastwest;whiteSpace=wrap;html=1;rounded=1;" vertex="1" parent="2m0mP7ySd1EQTY95ZOPa-7">
          <mxGeometry y="26" width="160" height="26" as="geometry" />
        </mxCell>
        <mxCell id="2m0mP7ySd1EQTY95ZOPa-8" value="+ Name: string" style="text;strokeColor=none;fillColor=none;align=left;verticalAlign=top;spacingLeft=4;spacingRight=4;overflow=hidden;rotatable=0;points=[[0,0.5],[1,0.5]];portConstraint=eastwest;whiteSpace=wrap;html=1;rounded=1;" vertex="1" parent="2m0mP7ySd1EQTY95ZOPa-7">
          <mxGeometry y="52" width="160" height="26" as="geometry" />
        </mxCell>
        <mxCell id="2m0mP7ySd1EQTY95ZOPa-13" value="+ Description: string" style="text;strokeColor=none;fillColor=none;align=left;verticalAlign=top;spacingLeft=4;spacingRight=4;overflow=hidden;rotatable=0;points=[[0,0.5],[1,0.5]];portConstraint=eastwest;whiteSpace=wrap;html=1;rounded=1;" vertex="1" parent="2m0mP7ySd1EQTY95ZOPa-7">
          <mxGeometry y="78" width="160" height="26" as="geometry" />
        </mxCell>
        <mxCell id="2m0mP7ySd1EQTY95ZOPa-12" value="+ PhotoUri: string" style="text;strokeColor=none;fillColor=none;align=left;verticalAlign=top;spacingLeft=4;spacingRight=4;overflow=hidden;rotatable=0;points=[[0,0.5],[1,0.5]];portConstraint=eastwest;whiteSpace=wrap;html=1;rounded=1;" vertex="1" parent="2m0mP7ySd1EQTY95ZOPa-7">
          <mxGeometry y="104" width="160" height="26" as="geometry" />
        </mxCell>
        <mxCell id="2m0mP7ySd1EQTY95ZOPa-11" value="+ IdEndereco: FK" style="text;strokeColor=none;fillColor=none;align=left;verticalAlign=top;spacingLeft=4;spacingRight=4;overflow=hidden;rotatable=0;points=[[0,0.5],[1,0.5]];portConstraint=eastwest;whiteSpace=wrap;html=1;rounded=1;" vertex="1" parent="2m0mP7ySd1EQTY95ZOPa-7">
          <mxGeometry y="130" width="160" height="26" as="geometry" />
        </mxCell>
        <mxCell id="2m0mP7ySd1EQTY95ZOPa-15" style="text;strokeColor=none;fillColor=none;align=left;verticalAlign=top;spacingLeft=4;spacingRight=4;overflow=hidden;rotatable=0;points=[[0,0.5],[1,0.5]];portConstraint=eastwest;whiteSpace=wrap;html=1;rounded=1;" vertex="1" parent="2m0mP7ySd1EQTY95ZOPa-7">
          <mxGeometry y="156" width="160" height="26" as="geometry" />
        </mxCell>
        <mxCell id="2m0mP7ySd1EQTY95ZOPa-9" value="" style="line;strokeWidth=1;fillColor=none;align=left;verticalAlign=middle;spacingTop=-1;spacingLeft=3;spacingRight=3;rotatable=0;labelPosition=right;points=[];portConstraint=eastwest;strokeColor=inherit;rounded=1;" vertex="1" parent="2m0mP7ySd1EQTY95ZOPa-7">
          <mxGeometry y="182" width="160" height="8" as="geometry" />
        </mxCell>
        <mxCell id="2m0mP7ySd1EQTY95ZOPa-10" value="+ method(type): type" style="text;strokeColor=none;fillColor=none;align=left;verticalAlign=top;spacingLeft=4;spacingRight=4;overflow=hidden;rotatable=0;points=[[0,0.5],[1,0.5]];portConstraint=eastwest;whiteSpace=wrap;html=1;rounded=1;" vertex="1" parent="2m0mP7ySd1EQTY95ZOPa-7">
          <mxGeometry y="190" width="160" height="26" as="geometry" />
        </mxCell>
        <mxCell id="2m0mP7ySd1EQTY95ZOPa-26" value="Endereco" style="swimlane;fontStyle=1;align=center;verticalAlign=top;childLayout=stackLayout;horizontal=1;startSize=26;horizontalStack=0;resizeParent=1;resizeParentMax=0;resizeLast=0;collapsible=1;marginBottom=0;whiteSpace=wrap;html=1;rounded=1;" vertex="1" parent="1">
          <mxGeometry x="10" y="320" width="160" height="216" as="geometry" />
        </mxCell>
        <mxCell id="2m0mP7ySd1EQTY95ZOPa-46" value="+ PK Id: Guid" style="text;strokeColor=none;fillColor=none;align=left;verticalAlign=top;spacingLeft=4;spacingRight=4;overflow=hidden;rotatable=0;points=[[0,0.5],[1,0.5]];portConstraint=eastwest;whiteSpace=wrap;html=1;rounded=1;" vertex="1" parent="2m0mP7ySd1EQTY95ZOPa-26">
          <mxGeometry y="26" width="160" height="26" as="geometry" />
        </mxCell>
        <mxCell id="2m0mP7ySd1EQTY95ZOPa-27" value="+ CEP: int" style="text;strokeColor=none;fillColor=none;align=left;verticalAlign=top;spacingLeft=4;spacingRight=4;overflow=hidden;rotatable=0;points=[[0,0.5],[1,0.5]];portConstraint=eastwest;whiteSpace=wrap;html=1;rounded=1;" vertex="1" parent="2m0mP7ySd1EQTY95ZOPa-26">
          <mxGeometry y="52" width="160" height="26" as="geometry" />
        </mxCell>
        <mxCell id="2m0mP7ySd1EQTY95ZOPa-31" value="+ Address: string" style="text;strokeColor=none;fillColor=none;align=left;verticalAlign=top;spacingLeft=4;spacingRight=4;overflow=hidden;rotatable=0;points=[[0,0.5],[1,0.5]];portConstraint=eastwest;whiteSpace=wrap;html=1;rounded=1;" vertex="1" parent="2m0mP7ySd1EQTY95ZOPa-26">
          <mxGeometry y="78" width="160" height="26" as="geometry" />
        </mxCell>
        <mxCell id="2m0mP7ySd1EQTY95ZOPa-32" value="+ Number: int" style="text;strokeColor=none;fillColor=none;align=left;verticalAlign=top;spacingLeft=4;spacingRight=4;overflow=hidden;rotatable=0;points=[[0,0.5],[1,0.5]];portConstraint=eastwest;whiteSpace=wrap;html=1;rounded=1;" vertex="1" parent="2m0mP7ySd1EQTY95ZOPa-26">
          <mxGeometry y="104" width="160" height="26" as="geometry" />
        </mxCell>
        <mxCell id="2m0mP7ySd1EQTY95ZOPa-30" value="+ City: string" style="text;strokeColor=none;fillColor=none;align=left;verticalAlign=top;spacingLeft=4;spacingRight=4;overflow=hidden;rotatable=0;points=[[0,0.5],[1,0.5]];portConstraint=eastwest;whiteSpace=wrap;html=1;rounded=1;" vertex="1" parent="2m0mP7ySd1EQTY95ZOPa-26">
          <mxGeometry y="130" width="160" height="26" as="geometry" />
        </mxCell>
        <mxCell id="2m0mP7ySd1EQTY95ZOPa-33" value="+ State: String" style="text;strokeColor=none;fillColor=none;align=left;verticalAlign=top;spacingLeft=4;spacingRight=4;overflow=hidden;rotatable=0;points=[[0,0.5],[1,0.5]];portConstraint=eastwest;whiteSpace=wrap;html=1;rounded=1;" vertex="1" parent="2m0mP7ySd1EQTY95ZOPa-26">
          <mxGeometry y="156" width="160" height="26" as="geometry" />
        </mxCell>
        <mxCell id="2m0mP7ySd1EQTY95ZOPa-28" value="" style="line;strokeWidth=1;fillColor=none;align=left;verticalAlign=middle;spacingTop=-1;spacingLeft=3;spacingRight=3;rotatable=0;labelPosition=right;points=[];portConstraint=eastwest;strokeColor=inherit;rounded=1;" vertex="1" parent="2m0mP7ySd1EQTY95ZOPa-26">
          <mxGeometry y="182" width="160" height="8" as="geometry" />
        </mxCell>
        <mxCell id="2m0mP7ySd1EQTY95ZOPa-29" value="+ method(type): type" style="text;strokeColor=none;fillColor=none;align=left;verticalAlign=top;spacingLeft=4;spacingRight=4;overflow=hidden;rotatable=0;points=[[0,0.5],[1,0.5]];portConstraint=eastwest;whiteSpace=wrap;html=1;rounded=1;" vertex="1" parent="2m0mP7ySd1EQTY95ZOPa-26">
          <mxGeometry y="190" width="160" height="26" as="geometry" />
        </mxCell>
        <mxCell id="2m0mP7ySd1EQTY95ZOPa-35" value="Usuario" style="swimlane;fontStyle=1;align=center;verticalAlign=top;childLayout=stackLayout;horizontal=1;startSize=26;horizontalStack=0;resizeParent=1;resizeParentMax=0;resizeLast=0;collapsible=1;marginBottom=0;whiteSpace=wrap;html=1;rounded=1;" vertex="1" parent="1">
          <mxGeometry x="460" y="320" width="160" height="268" as="geometry" />
        </mxCell>
        <mxCell id="2m0mP7ySd1EQTY95ZOPa-45" value="+ PK Id: Guid" style="text;strokeColor=none;fillColor=none;align=left;verticalAlign=top;spacingLeft=4;spacingRight=4;overflow=hidden;rotatable=0;points=[[0,0.5],[1,0.5]];portConstraint=eastwest;whiteSpace=wrap;html=1;rounded=1;" vertex="1" parent="2m0mP7ySd1EQTY95ZOPa-35">
          <mxGeometry y="26" width="160" height="26" as="geometry" />
        </mxCell>
        <mxCell id="2m0mP7ySd1EQTY95ZOPa-39" value="+ Name: string" style="text;strokeColor=none;fillColor=none;align=left;verticalAlign=top;spacingLeft=4;spacingRight=4;overflow=hidden;rotatable=0;points=[[0,0.5],[1,0.5]];portConstraint=eastwest;whiteSpace=wrap;html=1;rounded=1;" vertex="1" parent="2m0mP7ySd1EQTY95ZOPa-35">
          <mxGeometry y="52" width="160" height="26" as="geometry" />
        </mxCell>
        <mxCell id="2m0mP7ySd1EQTY95ZOPa-36" value="+ Birthdate: date" style="text;strokeColor=none;fillColor=none;align=left;verticalAlign=top;spacingLeft=4;spacingRight=4;overflow=hidden;rotatable=0;points=[[0,0.5],[1,0.5]];portConstraint=eastwest;whiteSpace=wrap;html=1;rounded=1;" vertex="1" parent="2m0mP7ySd1EQTY95ZOPa-35">
          <mxGeometry y="78" width="160" height="26" as="geometry" />
        </mxCell>
        <mxCell id="2m0mP7ySd1EQTY95ZOPa-40" value="+ Cpf: int" style="text;strokeColor=none;fillColor=none;align=left;verticalAlign=top;spacingLeft=4;spacingRight=4;overflow=hidden;rotatable=0;points=[[0,0.5],[1,0.5]];portConstraint=eastwest;whiteSpace=wrap;html=1;rounded=1;" vertex="1" parent="2m0mP7ySd1EQTY95ZOPa-35">
          <mxGeometry y="104" width="160" height="26" as="geometry" />
        </mxCell>
        <mxCell id="2m0mP7ySd1EQTY95ZOPa-42" value="+ Rg: int" style="text;strokeColor=none;fillColor=none;align=left;verticalAlign=top;spacingLeft=4;spacingRight=4;overflow=hidden;rotatable=0;points=[[0,0.5],[1,0.5]];portConstraint=eastwest;whiteSpace=wrap;html=1;rounded=1;" vertex="1" parent="2m0mP7ySd1EQTY95ZOPa-35">
          <mxGeometry y="130" width="160" height="26" as="geometry" />
        </mxCell>
        <mxCell id="2m0mP7ySd1EQTY95ZOPa-43" value="+ Email: string" style="text;strokeColor=none;fillColor=none;align=left;verticalAlign=top;spacingLeft=4;spacingRight=4;overflow=hidden;rotatable=0;points=[[0,0.5],[1,0.5]];portConstraint=eastwest;whiteSpace=wrap;html=1;rounded=1;" vertex="1" parent="2m0mP7ySd1EQTY95ZOPa-35">
          <mxGeometry y="156" width="160" height="26" as="geometry" />
        </mxCell>
        <mxCell id="2m0mP7ySd1EQTY95ZOPa-44" value="+ Password: string" style="text;strokeColor=none;fillColor=none;align=left;verticalAlign=top;spacingLeft=4;spacingRight=4;overflow=hidden;rotatable=0;points=[[0,0.5],[1,0.5]];portConstraint=eastwest;whiteSpace=wrap;html=1;rounded=1;" vertex="1" parent="2m0mP7ySd1EQTY95ZOPa-35">
          <mxGeometry y="182" width="160" height="26" as="geometry" />
        </mxCell>
        <mxCell id="2m0mP7ySd1EQTY95ZOPa-51" value="+ IdOng: FK" style="text;strokeColor=none;fillColor=none;align=left;verticalAlign=top;spacingLeft=4;spacingRight=4;overflow=hidden;rotatable=0;points=[[0,0.5],[1,0.5]];portConstraint=eastwest;whiteSpace=wrap;html=1;rounded=1;" vertex="1" parent="2m0mP7ySd1EQTY95ZOPa-35">
          <mxGeometry y="208" width="160" height="26" as="geometry" />
        </mxCell>
        <mxCell id="2m0mP7ySd1EQTY95ZOPa-37" value="" style="line;strokeWidth=1;fillColor=none;align=left;verticalAlign=middle;spacingTop=-1;spacingLeft=3;spacingRight=3;rotatable=0;labelPosition=right;points=[];portConstraint=eastwest;strokeColor=inherit;rounded=1;" vertex="1" parent="2m0mP7ySd1EQTY95ZOPa-35">
          <mxGeometry y="234" width="160" height="8" as="geometry" />
        </mxCell>
        <mxCell id="2m0mP7ySd1EQTY95ZOPa-38" value="+ method(type): type" style="text;strokeColor=none;fillColor=none;align=left;verticalAlign=top;spacingLeft=4;spacingRight=4;overflow=hidden;rotatable=0;points=[[0,0.5],[1,0.5]];portConstraint=eastwest;whiteSpace=wrap;html=1;rounded=1;" vertex="1" parent="2m0mP7ySd1EQTY95ZOPa-35">
          <mxGeometry y="242" width="160" height="26" as="geometry" />
        </mxCell>
        <mxCell id="2m0mP7ySd1EQTY95ZOPa-47" value="Payment" style="swimlane;fontStyle=1;align=center;verticalAlign=top;childLayout=stackLayout;horizontal=1;startSize=26;horizontalStack=0;resizeParent=1;resizeParentMax=0;resizeLast=0;collapsible=1;marginBottom=0;whiteSpace=wrap;html=1;rounded=1;" vertex="1" parent="1">
          <mxGeometry x="630" y="320" width="160" height="86" as="geometry" />
        </mxCell>
        <mxCell id="2m0mP7ySd1EQTY95ZOPa-48" value="+ field: type" style="text;strokeColor=none;fillColor=none;align=left;verticalAlign=top;spacingLeft=4;spacingRight=4;overflow=hidden;rotatable=0;points=[[0,0.5],[1,0.5]];portConstraint=eastwest;whiteSpace=wrap;html=1;rounded=1;" vertex="1" parent="2m0mP7ySd1EQTY95ZOPa-47">
          <mxGeometry y="26" width="160" height="26" as="geometry" />
        </mxCell>
        <mxCell id="2m0mP7ySd1EQTY95ZOPa-49" value="" style="line;strokeWidth=1;fillColor=none;align=left;verticalAlign=middle;spacingTop=-1;spacingLeft=3;spacingRight=3;rotatable=0;labelPosition=right;points=[];portConstraint=eastwest;strokeColor=inherit;rounded=1;" vertex="1" parent="2m0mP7ySd1EQTY95ZOPa-47">
          <mxGeometry y="52" width="160" height="8" as="geometry" />
        </mxCell>
        <mxCell id="2m0mP7ySd1EQTY95ZOPa-50" value="+ method(type): type" style="text;strokeColor=none;fillColor=none;align=left;verticalAlign=top;spacingLeft=4;spacingRight=4;overflow=hidden;rotatable=0;points=[[0,0.5],[1,0.5]];portConstraint=eastwest;whiteSpace=wrap;html=1;rounded=1;" vertex="1" parent="2m0mP7ySd1EQTY95ZOPa-47">
          <mxGeometry y="60" width="160" height="26" as="geometry" />
        </mxCell>
        <mxCell id="2m0mP7ySd1EQTY95ZOPa-53" style="edgeStyle=orthogonalEdgeStyle;rounded=1;orthogonalLoop=1;jettySize=auto;html=1;entryX=0;entryY=0.5;entryDx=0;entryDy=0;endArrow=none;endFill=0;" edge="1" parent="1" source="2m0mP7ySd1EQTY95ZOPa-14" target="2m0mP7ySd1EQTY95ZOPa-51">
          <mxGeometry relative="1" as="geometry" />
        </mxCell>
        <mxCell id="2m0mP7ySd1EQTY95ZOPa-54" value="1" style="text;html=1;align=center;verticalAlign=middle;resizable=0;points=[];autosize=1;strokeColor=none;fillColor=none;rounded=1;" vertex="1" parent="1">
          <mxGeometry x="361" y="338" width="30" height="30" as="geometry" />
        </mxCell>
        <mxCell id="2m0mP7ySd1EQTY95ZOPa-55" value="1" style="text;html=1;align=center;verticalAlign=middle;resizable=0;points=[];autosize=1;strokeColor=none;fillColor=none;rounded=1;" vertex="1" parent="1">
          <mxGeometry x="437" y="520" width="30" height="30" as="geometry" />
        </mxCell>
        <mxCell id="2m0mP7ySd1EQTY95ZOPa-56" style="edgeStyle=orthogonalEdgeStyle;rounded=1;orthogonalLoop=1;jettySize=auto;html=1;entryX=0;entryY=0.5;entryDx=0;entryDy=0;endArrow=none;endFill=0;" edge="1" parent="1" source="2m0mP7ySd1EQTY95ZOPa-46" target="2m0mP7ySd1EQTY95ZOPa-11">
          <mxGeometry relative="1" as="geometry" />
        </mxCell>
        <mxCell id="2m0mP7ySd1EQTY95ZOPa-57" value="Conceitual" style="rounded=1;whiteSpace=wrap;html=1;fillColor=#dae8fc;strokeColor=#6c8ebf;fontSize=15;" vertex="1" parent="1">
          <mxGeometry x="38.5" y="-1150" width="121.5" height="50" as="geometry" />
        </mxCell>
        <mxCell id="2m0mP7ySd1EQTY95ZOPa-96" value="" style="edgeStyle=orthogonalEdgeStyle;rounded=1;orthogonalLoop=1;jettySize=auto;html=1;endArrow=none;endFill=0;" edge="1" parent="1" source="2m0mP7ySd1EQTY95ZOPa-60" target="2m0mP7ySd1EQTY95ZOPa-95">
          <mxGeometry relative="1" as="geometry" />
        </mxCell>
        <mxCell id="2m0mP7ySd1EQTY95ZOPa-60" value="Ong" style="rounded=1;whiteSpace=wrap;html=1;fontSize=12;" vertex="1" parent="1">
          <mxGeometry x="376.5" y="-1040.75" width="80" height="40" as="geometry" />
        </mxCell>
        <mxCell id="2m0mP7ySd1EQTY95ZOPa-65" style="edgeStyle=orthogonalEdgeStyle;rounded=1;orthogonalLoop=1;jettySize=auto;html=1;entryX=0.5;entryY=0;entryDx=0;entryDy=0;endArrow=none;endFill=0;exitX=0.5;exitY=1;exitDx=0;exitDy=0;" edge="1" parent="1" source="2m0mP7ySd1EQTY95ZOPa-63" target="2m0mP7ySd1EQTY95ZOPa-60">
          <mxGeometry relative="1" as="geometry">
            <Array as="points">
              <mxPoint x="512.5" y="-1070" />
              <mxPoint x="416.5" y="-1070" />
            </Array>
          </mxGeometry>
        </mxCell>
        <mxCell id="2m0mP7ySd1EQTY95ZOPa-63" value="Name" style="ellipse;whiteSpace=wrap;html=1;rounded=1;" vertex="1" parent="1">
          <mxGeometry x="475" y="-1140" width="75" height="50" as="geometry" />
        </mxCell>
        <mxCell id="2m0mP7ySd1EQTY95ZOPa-99" style="edgeStyle=orthogonalEdgeStyle;rounded=1;orthogonalLoop=1;jettySize=auto;html=1;entryX=0.5;entryY=0;entryDx=0;entryDy=0;endArrow=none;endFill=0;exitX=0.5;exitY=1;exitDx=0;exitDy=0;" edge="1" parent="1" source="2m0mP7ySd1EQTY95ZOPa-64" target="2m0mP7ySd1EQTY95ZOPa-60">
          <mxGeometry relative="1" as="geometry">
            <Array as="points">
              <mxPoint x="416.5" y="-1090" />
            </Array>
          </mxGeometry>
        </mxCell>
        <mxCell id="2m0mP7ySd1EQTY95ZOPa-64" value="Description" style="ellipse;whiteSpace=wrap;html=1;rounded=1;" vertex="1" parent="1">
          <mxGeometry x="381.5" y="-1140" width="75" height="50" as="geometry" />
        </mxCell>
        <mxCell id="2m0mP7ySd1EQTY95ZOPa-100" style="edgeStyle=orthogonalEdgeStyle;rounded=1;orthogonalLoop=1;jettySize=auto;html=1;entryX=0.5;entryY=0;entryDx=0;entryDy=0;endArrow=none;endFill=0;exitX=0.5;exitY=1;exitDx=0;exitDy=0;" edge="1" parent="1" source="2m0mP7ySd1EQTY95ZOPa-67" target="2m0mP7ySd1EQTY95ZOPa-60">
          <mxGeometry relative="1" as="geometry">
            <Array as="points">
              <mxPoint x="334.5" y="-1070" />
              <mxPoint x="416.5" y="-1070" />
            </Array>
          </mxGeometry>
        </mxCell>
        <mxCell id="2m0mP7ySd1EQTY95ZOPa-67" value="PhotoUri" style="ellipse;whiteSpace=wrap;html=1;rounded=1;" vertex="1" parent="1">
          <mxGeometry x="296.5" y="-1140" width="75" height="50" as="geometry" />
        </mxCell>
        <mxCell id="2m0mP7ySd1EQTY95ZOPa-84" style="edgeStyle=orthogonalEdgeStyle;rounded=1;orthogonalLoop=1;jettySize=auto;html=1;entryX=0;entryY=0.5;entryDx=0;entryDy=0;endArrow=none;endFill=0;" edge="1" parent="1" source="2m0mP7ySd1EQTY95ZOPa-73" target="2m0mP7ySd1EQTY95ZOPa-78">
          <mxGeometry relative="1" as="geometry" />
        </mxCell>
        <mxCell id="2m0mP7ySd1EQTY95ZOPa-73" value="Usuario" style="rounded=1;whiteSpace=wrap;html=1;fontSize=12;" vertex="1" parent="1">
          <mxGeometry x="507" y="-975.25" width="80" height="40" as="geometry" />
        </mxCell>
        <mxCell id="2m0mP7ySd1EQTY95ZOPa-75" value="1" style="text;html=1;align=center;verticalAlign=middle;resizable=0;points=[];autosize=1;strokeColor=none;fillColor=none;rounded=1;" vertex="1" parent="1">
          <mxGeometry x="185" y="438" width="30" height="30" as="geometry" />
        </mxCell>
        <mxCell id="2m0mP7ySd1EQTY95ZOPa-76" value="1..*" style="text;html=1;align=center;verticalAlign=middle;resizable=0;points=[];autosize=1;strokeColor=none;fillColor=none;rounded=1;" vertex="1" parent="1">
          <mxGeometry x="160" y="338" width="40" height="30" as="geometry" />
        </mxCell>
        <mxCell id="2m0mP7ySd1EQTY95ZOPa-86" style="edgeStyle=orthogonalEdgeStyle;rounded=1;orthogonalLoop=1;jettySize=auto;html=1;entryX=1;entryY=0.5;entryDx=0;entryDy=0;endArrow=none;endFill=0;" edge="1" parent="1" source="2m0mP7ySd1EQTY95ZOPa-79" target="2m0mP7ySd1EQTY95ZOPa-73">
          <mxGeometry relative="1" as="geometry">
            <Array as="points">
              <mxPoint x="597" y="-895.25" />
              <mxPoint x="597" y="-955.25" />
            </Array>
          </mxGeometry>
        </mxCell>
        <mxCell id="2m0mP7ySd1EQTY95ZOPa-87" style="edgeStyle=orthogonalEdgeStyle;rounded=1;orthogonalLoop=1;jettySize=auto;html=1;entryX=1;entryY=0.5;entryDx=0;entryDy=0;endArrow=none;endFill=0;" edge="1" parent="1" source="2m0mP7ySd1EQTY95ZOPa-80" target="2m0mP7ySd1EQTY95ZOPa-73">
          <mxGeometry relative="1" as="geometry">
            <Array as="points">
              <mxPoint x="597" y="-835.25" />
              <mxPoint x="597" y="-955.25" />
            </Array>
          </mxGeometry>
        </mxCell>
        <mxCell id="2m0mP7ySd1EQTY95ZOPa-89" style="edgeStyle=orthogonalEdgeStyle;rounded=1;orthogonalLoop=1;jettySize=auto;html=1;entryX=1;entryY=0.5;entryDx=0;entryDy=0;endArrow=none;endFill=0;" edge="1" parent="1" source="2m0mP7ySd1EQTY95ZOPa-81" target="2m0mP7ySd1EQTY95ZOPa-73">
          <mxGeometry relative="1" as="geometry">
            <Array as="points">
              <mxPoint x="597" y="-895.25" />
              <mxPoint x="597" y="-955.25" />
            </Array>
          </mxGeometry>
        </mxCell>
        <mxCell id="2m0mP7ySd1EQTY95ZOPa-81" value="Email" style="ellipse;whiteSpace=wrap;html=1;rounded=1;" vertex="1" parent="1">
          <mxGeometry x="697" y="-920.25" width="75" height="50" as="geometry" />
        </mxCell>
        <mxCell id="2m0mP7ySd1EQTY95ZOPa-88" style="edgeStyle=orthogonalEdgeStyle;rounded=1;orthogonalLoop=1;jettySize=auto;html=1;entryX=1;entryY=0.5;entryDx=0;entryDy=0;endArrow=none;endFill=0;" edge="1" parent="1" source="2m0mP7ySd1EQTY95ZOPa-82" target="2m0mP7ySd1EQTY95ZOPa-73">
          <mxGeometry relative="1" as="geometry" />
        </mxCell>
        <mxCell id="2m0mP7ySd1EQTY95ZOPa-82" value="Rg" style="ellipse;whiteSpace=wrap;html=1;rounded=1;" vertex="1" parent="1">
          <mxGeometry x="697" y="-980.25" width="75" height="50" as="geometry" />
        </mxCell>
        <mxCell id="2m0mP7ySd1EQTY95ZOPa-90" style="edgeStyle=orthogonalEdgeStyle;rounded=1;orthogonalLoop=1;jettySize=auto;html=1;entryX=1;entryY=0.5;entryDx=0;entryDy=0;endArrow=none;endFill=0;" edge="1" parent="1" source="2m0mP7ySd1EQTY95ZOPa-83" target="2m0mP7ySd1EQTY95ZOPa-73">
          <mxGeometry relative="1" as="geometry">
            <Array as="points">
              <mxPoint x="597" y="-835.25" />
              <mxPoint x="597" y="-955.25" />
            </Array>
          </mxGeometry>
        </mxCell>
        <mxCell id="2m0mP7ySd1EQTY95ZOPa-83" value="Password" style="ellipse;whiteSpace=wrap;html=1;rounded=1;" vertex="1" parent="1">
          <mxGeometry x="697" y="-860.25" width="75" height="50" as="geometry" />
        </mxCell>
        <mxCell id="2m0mP7ySd1EQTY95ZOPa-78" value="Name" style="ellipse;whiteSpace=wrap;html=1;rounded=1;" vertex="1" parent="1">
          <mxGeometry x="607" y="-980.25" width="75" height="50" as="geometry" />
        </mxCell>
        <mxCell id="2m0mP7ySd1EQTY95ZOPa-79" value="Birth" style="ellipse;whiteSpace=wrap;html=1;rounded=1;" vertex="1" parent="1">
          <mxGeometry x="607" y="-920.25" width="75" height="50" as="geometry" />
        </mxCell>
        <mxCell id="2m0mP7ySd1EQTY95ZOPa-80" value="Cpf" style="ellipse;whiteSpace=wrap;html=1;rounded=1;" vertex="1" parent="1">
          <mxGeometry x="607" y="-860.25" width="75" height="50" as="geometry" />
        </mxCell>
        <mxCell id="2m0mP7ySd1EQTY95ZOPa-98" value="" style="edgeStyle=orthogonalEdgeStyle;rounded=1;orthogonalLoop=1;jettySize=auto;html=1;endArrow=none;endFill=0;" edge="1" parent="1" source="2m0mP7ySd1EQTY95ZOPa-95" target="2m0mP7ySd1EQTY95ZOPa-97">
          <mxGeometry relative="1" as="geometry" />
        </mxCell>
        <mxCell id="2m0mP7ySd1EQTY95ZOPa-101" style="edgeStyle=orthogonalEdgeStyle;rounded=1;orthogonalLoop=1;jettySize=auto;html=1;entryX=0;entryY=0.5;entryDx=0;entryDy=0;endArrow=none;endFill=0;" edge="1" parent="1" source="2m0mP7ySd1EQTY95ZOPa-95" target="2m0mP7ySd1EQTY95ZOPa-73">
          <mxGeometry relative="1" as="geometry" />
        </mxCell>
        <mxCell id="2m0mP7ySd1EQTY95ZOPa-95" value="possui" style="rhombus;whiteSpace=wrap;html=1;rounded=1;" vertex="1" parent="1">
          <mxGeometry x="387.25" y="-984.25" width="58.5" height="58.5" as="geometry" />
        </mxCell>
        <mxCell id="2m0mP7ySd1EQTY95ZOPa-97" value="Endereco" style="rounded=1;whiteSpace=wrap;html=1;fontSize=12;" vertex="1" parent="1">
          <mxGeometry x="256.5" y="-975" width="80" height="40" as="geometry" />
        </mxCell>
        <mxCell id="2m0mP7ySd1EQTY95ZOPa-107" style="edgeStyle=orthogonalEdgeStyle;rounded=1;orthogonalLoop=1;jettySize=auto;html=1;entryX=0;entryY=0.5;entryDx=0;entryDy=0;endArrow=none;endFill=0;" edge="1" parent="1" source="2m0mP7ySd1EQTY95ZOPa-102" target="2m0mP7ySd1EQTY95ZOPa-97">
          <mxGeometry relative="1" as="geometry">
            <Array as="points">
              <mxPoint x="240" y="-1055" />
              <mxPoint x="240" y="-955" />
            </Array>
          </mxGeometry>
        </mxCell>
        <mxCell id="2m0mP7ySd1EQTY95ZOPa-102" value="CEP" style="ellipse;whiteSpace=wrap;html=1;rounded=1;" vertex="1" parent="1">
          <mxGeometry x="150" y="-1080" width="75" height="50" as="geometry" />
        </mxCell>
        <mxCell id="2m0mP7ySd1EQTY95ZOPa-108" style="edgeStyle=orthogonalEdgeStyle;rounded=1;orthogonalLoop=1;jettySize=auto;html=1;entryX=0;entryY=0.5;entryDx=0;entryDy=0;endArrow=none;endFill=0;" edge="1" parent="1" source="2m0mP7ySd1EQTY95ZOPa-103" target="2m0mP7ySd1EQTY95ZOPa-97">
          <mxGeometry relative="1" as="geometry">
            <Array as="points">
              <mxPoint x="240" y="-995" />
              <mxPoint x="240" y="-955" />
            </Array>
          </mxGeometry>
        </mxCell>
        <mxCell id="2m0mP7ySd1EQTY95ZOPa-103" value="Address" style="ellipse;whiteSpace=wrap;html=1;rounded=1;" vertex="1" parent="1">
          <mxGeometry x="150" y="-1020" width="75" height="50" as="geometry" />
        </mxCell>
        <mxCell id="2m0mP7ySd1EQTY95ZOPa-109" style="edgeStyle=orthogonalEdgeStyle;rounded=1;orthogonalLoop=1;jettySize=auto;html=1;entryX=0;entryY=0.5;entryDx=0;entryDy=0;endArrow=none;endFill=0;" edge="1" parent="1" source="2m0mP7ySd1EQTY95ZOPa-104" target="2m0mP7ySd1EQTY95ZOPa-97">
          <mxGeometry relative="1" as="geometry">
            <Array as="points">
              <mxPoint x="240" y="-935" />
              <mxPoint x="240" y="-955" />
            </Array>
          </mxGeometry>
        </mxCell>
        <mxCell id="2m0mP7ySd1EQTY95ZOPa-104" value="Number" style="ellipse;whiteSpace=wrap;html=1;rounded=1;" vertex="1" parent="1">
          <mxGeometry x="150" y="-960" width="75" height="50" as="geometry" />
        </mxCell>
        <mxCell id="2m0mP7ySd1EQTY95ZOPa-110" style="edgeStyle=orthogonalEdgeStyle;rounded=1;orthogonalLoop=1;jettySize=auto;html=1;entryX=0;entryY=0.5;entryDx=0;entryDy=0;endArrow=none;endFill=0;" edge="1" parent="1" source="2m0mP7ySd1EQTY95ZOPa-105" target="2m0mP7ySd1EQTY95ZOPa-97">
          <mxGeometry relative="1" as="geometry">
            <Array as="points">
              <mxPoint x="240" y="-875" />
              <mxPoint x="240" y="-955" />
            </Array>
          </mxGeometry>
        </mxCell>
        <mxCell id="2m0mP7ySd1EQTY95ZOPa-105" value="City" style="ellipse;whiteSpace=wrap;html=1;rounded=1;" vertex="1" parent="1">
          <mxGeometry x="150" y="-900" width="75" height="50" as="geometry" />
        </mxCell>
        <mxCell id="2m0mP7ySd1EQTY95ZOPa-111" style="edgeStyle=orthogonalEdgeStyle;rounded=1;orthogonalLoop=1;jettySize=auto;html=1;entryX=0;entryY=0.5;entryDx=0;entryDy=0;endArrow=none;endFill=0;" edge="1" parent="1" source="2m0mP7ySd1EQTY95ZOPa-106" target="2m0mP7ySd1EQTY95ZOPa-97">
          <mxGeometry relative="1" as="geometry">
            <Array as="points">
              <mxPoint x="240" y="-815" />
              <mxPoint x="240" y="-955" />
            </Array>
          </mxGeometry>
        </mxCell>
        <mxCell id="2m0mP7ySd1EQTY95ZOPa-106" value="State" style="ellipse;whiteSpace=wrap;html=1;rounded=1;" vertex="1" parent="1">
          <mxGeometry x="150" y="-840" width="75" height="50" as="geometry" />
        </mxCell>
        <mxCell id="2m0mP7ySd1EQTY95ZOPa-112" value="1" style="text;html=1;align=center;verticalAlign=middle;resizable=0;points=[];autosize=1;strokeColor=none;fillColor=none;rounded=1;" vertex="1" parent="1">
          <mxGeometry x="406" y="-1008" width="30" height="30" as="geometry" />
        </mxCell>
        <mxCell id="2m0mP7ySd1EQTY95ZOPa-113" value="1" style="text;html=1;align=center;verticalAlign=middle;resizable=0;points=[];autosize=1;strokeColor=none;fillColor=none;rounded=1;" vertex="1" parent="1">
          <mxGeometry x="484" y="-978.25" width="30" height="30" as="geometry" />
        </mxCell>
        <mxCell id="2m0mP7ySd1EQTY95ZOPa-114" value="N" style="text;html=1;align=center;verticalAlign=middle;resizable=0;points=[];autosize=1;strokeColor=none;fillColor=none;rounded=1;" vertex="1" parent="1">
          <mxGeometry x="328.5" y="-976" width="30" height="30" as="geometry" />
        </mxCell>
        <mxCell id="2m0mP7ySd1EQTY95ZOPa-115" value="LÃ³gico" style="rounded=1;whiteSpace=wrap;html=1;fillColor=#dae8fc;strokeColor=#6c8ebf;fontSize=15;" vertex="1" parent="1">
          <mxGeometry x="38.5" y="-720" width="121.5" height="50" as="geometry" />
        </mxCell>
        <mxCell id="2m0mP7ySd1EQTY95ZOPa-116" value="Endereco" style="shape=table;startSize=30;container=1;collapsible=1;childLayout=tableLayout;fixedRows=1;rowLines=0;fontStyle=1;align=center;resizeLast=1;html=1;whiteSpace=wrap;rounded=1;" vertex="1" parent="1">
          <mxGeometry x="38.5" y="-640" width="180" height="240" as="geometry" />
        </mxCell>
        <mxCell id="2m0mP7ySd1EQTY95ZOPa-117" value="" style="shape=tableRow;horizontal=0;startSize=0;swimlaneHead=0;swimlaneBody=0;fillColor=none;collapsible=0;dropTarget=0;points=[[0,0.5],[1,0.5]];portConstraint=eastwest;top=0;left=0;right=0;bottom=0;html=1;rounded=1;" vertex="1" parent="2m0mP7ySd1EQTY95ZOPa-116">
          <mxGeometry y="30" width="180" height="30" as="geometry" />
        </mxCell>
        <mxCell id="2m0mP7ySd1EQTY95ZOPa-118" value="PK" style="shape=partialRectangle;connectable=0;fillColor=none;top=0;left=0;bottom=0;right=0;fontStyle=1;overflow=hidden;html=1;whiteSpace=wrap;rounded=1;" vertex="1" parent="2m0mP7ySd1EQTY95ZOPa-117">
          <mxGeometry width="60" height="30" as="geometry">
            <mxRectangle width="60" height="30" as="alternateBounds" />
          </mxGeometry>
        </mxCell>
        <mxCell id="2m0mP7ySd1EQTY95ZOPa-119" value="IdEndereco" style="shape=partialRectangle;connectable=0;fillColor=none;top=0;left=0;bottom=0;right=0;align=left;spacingLeft=6;fontStyle=5;overflow=hidden;html=1;whiteSpace=wrap;rounded=1;" vertex="1" parent="2m0mP7ySd1EQTY95ZOPa-117">
          <mxGeometry x="60" width="120" height="30" as="geometry">
            <mxRectangle width="120" height="30" as="alternateBounds" />
          </mxGeometry>
        </mxCell>
        <mxCell id="2m0mP7ySd1EQTY95ZOPa-120" value="" style="shape=tableRow;horizontal=0;startSize=0;swimlaneHead=0;swimlaneBody=0;fillColor=none;collapsible=0;dropTarget=0;points=[[0,0.5],[1,0.5]];portConstraint=eastwest;top=0;left=0;right=0;bottom=1;html=1;rounded=1;" vertex="1" parent="2m0mP7ySd1EQTY95ZOPa-116">
          <mxGeometry y="60" width="180" height="30" as="geometry" />
        </mxCell>
        <mxCell id="2m0mP7ySd1EQTY95ZOPa-121" value="FK" style="shape=partialRectangle;connectable=0;fillColor=none;top=0;left=0;bottom=0;right=0;fontStyle=1;overflow=hidden;html=1;whiteSpace=wrap;rounded=1;" vertex="1" parent="2m0mP7ySd1EQTY95ZOPa-120">
          <mxGeometry width="60" height="30" as="geometry">
            <mxRectangle width="60" height="30" as="alternateBounds" />
          </mxGeometry>
        </mxCell>
        <mxCell id="2m0mP7ySd1EQTY95ZOPa-122" value="IdOng" style="shape=partialRectangle;connectable=0;fillColor=none;top=0;left=0;bottom=0;right=0;align=left;spacingLeft=6;fontStyle=5;overflow=hidden;html=1;whiteSpace=wrap;rounded=1;" vertex="1" parent="2m0mP7ySd1EQTY95ZOPa-120">
          <mxGeometry x="60" width="120" height="30" as="geometry">
            <mxRectangle width="120" height="30" as="alternateBounds" />
          </mxGeometry>
        </mxCell>
        <mxCell id="2m0mP7ySd1EQTY95ZOPa-123" value="" style="shape=tableRow;horizontal=0;startSize=0;swimlaneHead=0;swimlaneBody=0;fillColor=none;collapsible=0;dropTarget=0;points=[[0,0.5],[1,0.5]];portConstraint=eastwest;top=0;left=0;right=0;bottom=0;html=1;rounded=1;" vertex="1" parent="2m0mP7ySd1EQTY95ZOPa-116">
          <mxGeometry y="90" width="180" height="30" as="geometry" />
        </mxCell>
        <mxCell id="2m0mP7ySd1EQTY95ZOPa-124" value="" style="shape=partialRectangle;connectable=0;fillColor=none;top=0;left=0;bottom=0;right=0;editable=1;overflow=hidden;html=1;whiteSpace=wrap;rounded=1;" vertex="1" parent="2m0mP7ySd1EQTY95ZOPa-123">
          <mxGeometry width="60" height="30" as="geometry">
            <mxRectangle width="60" height="30" as="alternateBounds" />
          </mxGeometry>
        </mxCell>
        <mxCell id="2m0mP7ySd1EQTY95ZOPa-125" value="Cep" style="shape=partialRectangle;connectable=0;fillColor=none;top=0;left=0;bottom=0;right=0;align=left;spacingLeft=6;overflow=hidden;html=1;whiteSpace=wrap;rounded=1;" vertex="1" parent="2m0mP7ySd1EQTY95ZOPa-123">
          <mxGeometry x="60" width="120" height="30" as="geometry">
            <mxRectangle width="120" height="30" as="alternateBounds" />
          </mxGeometry>
        </mxCell>
        <mxCell id="2m0mP7ySd1EQTY95ZOPa-126" value="" style="shape=tableRow;horizontal=0;startSize=0;swimlaneHead=0;swimlaneBody=0;fillColor=none;collapsible=0;dropTarget=0;points=[[0,0.5],[1,0.5]];portConstraint=eastwest;top=0;left=0;right=0;bottom=0;html=1;rounded=1;" vertex="1" parent="2m0mP7ySd1EQTY95ZOPa-116">
          <mxGeometry y="120" width="180" height="30" as="geometry" />
        </mxCell>
        <mxCell id="2m0mP7ySd1EQTY95ZOPa-127" value="" style="shape=partialRectangle;connectable=0;fillColor=none;top=0;left=0;bottom=0;right=0;editable=1;overflow=hidden;html=1;whiteSpace=wrap;rounded=1;" vertex="1" parent="2m0mP7ySd1EQTY95ZOPa-126">
          <mxGeometry width="60" height="30" as="geometry">
            <mxRectangle width="60" height="30" as="alternateBounds" />
          </mxGeometry>
        </mxCell>
        <mxCell id="2m0mP7ySd1EQTY95ZOPa-128" value="Address" style="shape=partialRectangle;connectable=0;fillColor=none;top=0;left=0;bottom=0;right=0;align=left;spacingLeft=6;overflow=hidden;html=1;whiteSpace=wrap;rounded=1;" vertex="1" parent="2m0mP7ySd1EQTY95ZOPa-126">
          <mxGeometry x="60" width="120" height="30" as="geometry">
            <mxRectangle width="120" height="30" as="alternateBounds" />
          </mxGeometry>
        </mxCell>
        <mxCell id="2m0mP7ySd1EQTY95ZOPa-129" value="" style="shape=tableRow;horizontal=0;startSize=0;swimlaneHead=0;swimlaneBody=0;fillColor=none;collapsible=0;dropTarget=0;points=[[0,0.5],[1,0.5]];portConstraint=eastwest;top=0;left=0;right=0;bottom=0;html=1;rounded=1;" vertex="1" parent="2m0mP7ySd1EQTY95ZOPa-116">
          <mxGeometry y="150" width="180" height="30" as="geometry" />
        </mxCell>
        <mxCell id="2m0mP7ySd1EQTY95ZOPa-130" value="" style="shape=partialRectangle;connectable=0;fillColor=none;top=0;left=0;bottom=0;right=0;editable=1;overflow=hidden;html=1;whiteSpace=wrap;rounded=1;" vertex="1" parent="2m0mP7ySd1EQTY95ZOPa-129">
          <mxGeometry width="60" height="30" as="geometry">
            <mxRectangle width="60" height="30" as="alternateBounds" />
          </mxGeometry>
        </mxCell>
        <mxCell id="2m0mP7ySd1EQTY95ZOPa-131" value="Number" style="shape=partialRectangle;connectable=0;fillColor=none;top=0;left=0;bottom=0;right=0;align=left;spacingLeft=6;overflow=hidden;html=1;whiteSpace=wrap;rounded=1;" vertex="1" parent="2m0mP7ySd1EQTY95ZOPa-129">
          <mxGeometry x="60" width="120" height="30" as="geometry">
            <mxRectangle width="120" height="30" as="alternateBounds" />
          </mxGeometry>
        </mxCell>
        <mxCell id="2m0mP7ySd1EQTY95ZOPa-132" value="" style="shape=tableRow;horizontal=0;startSize=0;swimlaneHead=0;swimlaneBody=0;fillColor=none;collapsible=0;dropTarget=0;points=[[0,0.5],[1,0.5]];portConstraint=eastwest;top=0;left=0;right=0;bottom=0;html=1;rounded=1;" vertex="1" parent="2m0mP7ySd1EQTY95ZOPa-116">
          <mxGeometry y="180" width="180" height="30" as="geometry" />
        </mxCell>
        <mxCell id="2m0mP7ySd1EQTY95ZOPa-133" value="" style="shape=partialRectangle;connectable=0;fillColor=none;top=0;left=0;bottom=0;right=0;editable=1;overflow=hidden;html=1;whiteSpace=wrap;rounded=1;" vertex="1" parent="2m0mP7ySd1EQTY95ZOPa-132">
          <mxGeometry width="60" height="30" as="geometry">
            <mxRectangle width="60" height="30" as="alternateBounds" />
          </mxGeometry>
        </mxCell>
        <mxCell id="2m0mP7ySd1EQTY95ZOPa-134" value="City" style="shape=partialRectangle;connectable=0;fillColor=none;top=0;left=0;bottom=0;right=0;align=left;spacingLeft=6;overflow=hidden;html=1;whiteSpace=wrap;rounded=1;" vertex="1" parent="2m0mP7ySd1EQTY95ZOPa-132">
          <mxGeometry x="60" width="120" height="30" as="geometry">
            <mxRectangle width="120" height="30" as="alternateBounds" />
          </mxGeometry>
        </mxCell>
        <mxCell id="2m0mP7ySd1EQTY95ZOPa-135" value="" style="shape=tableRow;horizontal=0;startSize=0;swimlaneHead=0;swimlaneBody=0;fillColor=none;collapsible=0;dropTarget=0;points=[[0,0.5],[1,0.5]];portConstraint=eastwest;top=0;left=0;right=0;bottom=0;html=1;rounded=1;" vertex="1" parent="2m0mP7ySd1EQTY95ZOPa-116">
          <mxGeometry y="210" width="180" height="30" as="geometry" />
        </mxCell>
        <mxCell id="2m0mP7ySd1EQTY95ZOPa-136" value="" style="shape=partialRectangle;connectable=0;fillColor=none;top=0;left=0;bottom=0;right=0;editable=1;overflow=hidden;html=1;whiteSpace=wrap;rounded=1;" vertex="1" parent="2m0mP7ySd1EQTY95ZOPa-135">
          <mxGeometry width="60" height="30" as="geometry">
            <mxRectangle width="60" height="30" as="alternateBounds" />
          </mxGeometry>
        </mxCell>
        <mxCell id="2m0mP7ySd1EQTY95ZOPa-137" value="State" style="shape=partialRectangle;connectable=0;fillColor=none;top=0;left=0;bottom=0;right=0;align=left;spacingLeft=6;overflow=hidden;html=1;whiteSpace=wrap;rounded=1;" vertex="1" parent="2m0mP7ySd1EQTY95ZOPa-135">
          <mxGeometry x="60" width="120" height="30" as="geometry">
            <mxRectangle width="120" height="30" as="alternateBounds" />
          </mxGeometry>
        </mxCell>
        <mxCell id="2m0mP7ySd1EQTY95ZOPa-151" value="Ong" style="shape=table;startSize=30;container=1;collapsible=1;childLayout=tableLayout;fixedRows=1;rowLines=0;fontStyle=1;align=center;resizeLast=1;html=1;whiteSpace=wrap;rounded=1;" vertex="1" parent="1">
          <mxGeometry x="280" y="-640" width="180" height="210" as="geometry" />
        </mxCell>
        <mxCell id="2m0mP7ySd1EQTY95ZOPa-152" value="" style="shape=tableRow;horizontal=0;startSize=0;swimlaneHead=0;swimlaneBody=0;fillColor=none;collapsible=0;dropTarget=0;points=[[0,0.5],[1,0.5]];portConstraint=eastwest;top=0;left=0;right=0;bottom=0;html=1;rounded=1;" vertex="1" parent="2m0mP7ySd1EQTY95ZOPa-151">
          <mxGeometry y="30" width="180" height="30" as="geometry" />
        </mxCell>
        <mxCell id="2m0mP7ySd1EQTY95ZOPa-153" value="PK" style="shape=partialRectangle;connectable=0;fillColor=none;top=0;left=0;bottom=0;right=0;fontStyle=1;overflow=hidden;html=1;whiteSpace=wrap;rounded=1;" vertex="1" parent="2m0mP7ySd1EQTY95ZOPa-152">
          <mxGeometry width="60" height="30" as="geometry">
            <mxRectangle width="60" height="30" as="alternateBounds" />
          </mxGeometry>
        </mxCell>
        <mxCell id="2m0mP7ySd1EQTY95ZOPa-154" value="IdOng" style="shape=partialRectangle;connectable=0;fillColor=none;top=0;left=0;bottom=0;right=0;align=left;spacingLeft=6;fontStyle=5;overflow=hidden;html=1;whiteSpace=wrap;rounded=1;" vertex="1" parent="2m0mP7ySd1EQTY95ZOPa-152">
          <mxGeometry x="60" width="120" height="30" as="geometry">
            <mxRectangle width="120" height="30" as="alternateBounds" />
          </mxGeometry>
        </mxCell>
        <mxCell id="2m0mP7ySd1EQTY95ZOPa-155" value="" style="shape=tableRow;horizontal=0;startSize=0;swimlaneHead=0;swimlaneBody=0;fillColor=none;collapsible=0;dropTarget=0;points=[[0,0.5],[1,0.5]];portConstraint=eastwest;top=0;left=0;right=0;bottom=1;html=1;rounded=1;" vertex="1" parent="2m0mP7ySd1EQTY95ZOPa-151">
          <mxGeometry y="60" width="180" height="30" as="geometry" />
        </mxCell>
        <mxCell id="2m0mP7ySd1EQTY95ZOPa-156" value="FK" style="shape=partialRectangle;connectable=0;fillColor=none;top=0;left=0;bottom=0;right=0;fontStyle=1;overflow=hidden;html=1;whiteSpace=wrap;rounded=1;" vertex="1" parent="2m0mP7ySd1EQTY95ZOPa-155">
          <mxGeometry width="60" height="30" as="geometry">
            <mxRectangle width="60" height="30" as="alternateBounds" />
          </mxGeometry>
        </mxCell>
        <mxCell id="2m0mP7ySd1EQTY95ZOPa-157" value="IdUsuario" style="shape=partialRectangle;connectable=0;fillColor=none;top=0;left=0;bottom=0;right=0;align=left;spacingLeft=6;fontStyle=5;overflow=hidden;html=1;whiteSpace=wrap;rounded=1;" vertex="1" parent="2m0mP7ySd1EQTY95ZOPa-155">
          <mxGeometry x="60" width="120" height="30" as="geometry">
            <mxRectangle width="120" height="30" as="alternateBounds" />
          </mxGeometry>
        </mxCell>
        <mxCell id="2m0mP7ySd1EQTY95ZOPa-158" value="" style="shape=tableRow;horizontal=0;startSize=0;swimlaneHead=0;swimlaneBody=0;fillColor=none;collapsible=0;dropTarget=0;points=[[0,0.5],[1,0.5]];portConstraint=eastwest;top=0;left=0;right=0;bottom=0;html=1;rounded=1;" vertex="1" parent="2m0mP7ySd1EQTY95ZOPa-151">
          <mxGeometry y="90" width="180" height="30" as="geometry" />
        </mxCell>
        <mxCell id="2m0mP7ySd1EQTY95ZOPa-159" value="" style="shape=partialRectangle;connectable=0;fillColor=none;top=0;left=0;bottom=0;right=0;editable=1;overflow=hidden;html=1;whiteSpace=wrap;rounded=1;" vertex="1" parent="2m0mP7ySd1EQTY95ZOPa-158">
          <mxGeometry width="60" height="30" as="geometry">
            <mxRectangle width="60" height="30" as="alternateBounds" />
          </mxGeometry>
        </mxCell>
        <mxCell id="2m0mP7ySd1EQTY95ZOPa-160" value="Name" style="shape=partialRectangle;connectable=0;fillColor=none;top=0;left=0;bottom=0;right=0;align=left;spacingLeft=6;overflow=hidden;html=1;whiteSpace=wrap;rounded=1;" vertex="1" parent="2m0mP7ySd1EQTY95ZOPa-158">
          <mxGeometry x="60" width="120" height="30" as="geometry">
            <mxRectangle width="120" height="30" as="alternateBounds" />
          </mxGeometry>
        </mxCell>
        <mxCell id="2m0mP7ySd1EQTY95ZOPa-161" value="" style="shape=tableRow;horizontal=0;startSize=0;swimlaneHead=0;swimlaneBody=0;fillColor=none;collapsible=0;dropTarget=0;points=[[0,0.5],[1,0.5]];portConstraint=eastwest;top=0;left=0;right=0;bottom=0;html=1;rounded=1;" vertex="1" parent="2m0mP7ySd1EQTY95ZOPa-151">
          <mxGeometry y="120" width="180" height="30" as="geometry" />
        </mxCell>
        <mxCell id="2m0mP7ySd1EQTY95ZOPa-162" value="" style="shape=partialRectangle;connectable=0;fillColor=none;top=0;left=0;bottom=0;right=0;editable=1;overflow=hidden;html=1;whiteSpace=wrap;rounded=1;" vertex="1" parent="2m0mP7ySd1EQTY95ZOPa-161">
          <mxGeometry width="60" height="30" as="geometry">
            <mxRectangle width="60" height="30" as="alternateBounds" />
          </mxGeometry>
        </mxCell>
        <mxCell id="2m0mP7ySd1EQTY95ZOPa-163" value="Description" style="shape=partialRectangle;connectable=0;fillColor=none;top=0;left=0;bottom=0;right=0;align=left;spacingLeft=6;overflow=hidden;html=1;whiteSpace=wrap;rounded=1;" vertex="1" parent="2m0mP7ySd1EQTY95ZOPa-161">
          <mxGeometry x="60" width="120" height="30" as="geometry">
            <mxRectangle width="120" height="30" as="alternateBounds" />
          </mxGeometry>
        </mxCell>
        <mxCell id="2m0mP7ySd1EQTY95ZOPa-165" value="" style="shape=tableRow;horizontal=0;startSize=0;swimlaneHead=0;swimlaneBody=0;fillColor=none;collapsible=0;dropTarget=0;points=[[0,0.5],[1,0.5]];portConstraint=eastwest;top=0;left=0;right=0;bottom=0;html=1;rounded=1;" vertex="1" parent="2m0mP7ySd1EQTY95ZOPa-151">
          <mxGeometry y="150" width="180" height="30" as="geometry" />
        </mxCell>
        <mxCell id="2m0mP7ySd1EQTY95ZOPa-166" value="" style="shape=partialRectangle;connectable=0;fillColor=none;top=0;left=0;bottom=0;right=0;editable=1;overflow=hidden;html=1;whiteSpace=wrap;rounded=1;" vertex="1" parent="2m0mP7ySd1EQTY95ZOPa-165">
          <mxGeometry width="60" height="30" as="geometry">
            <mxRectangle width="60" height="30" as="alternateBounds" />
          </mxGeometry>
        </mxCell>
        <mxCell id="2m0mP7ySd1EQTY95ZOPa-167" value="PhotoUri" style="shape=partialRectangle;connectable=0;fillColor=none;top=0;left=0;bottom=0;right=0;align=left;spacingLeft=6;overflow=hidden;html=1;whiteSpace=wrap;rounded=1;" vertex="1" parent="2m0mP7ySd1EQTY95ZOPa-165">
          <mxGeometry x="60" width="120" height="30" as="geometry">
            <mxRectangle width="120" height="30" as="alternateBounds" />
          </mxGeometry>
        </mxCell>
        <mxCell id="2m0mP7ySd1EQTY95ZOPa-168" value="" style="shape=tableRow;horizontal=0;startSize=0;swimlaneHead=0;swimlaneBody=0;fillColor=none;collapsible=0;dropTarget=0;points=[[0,0.5],[1,0.5]];portConstraint=eastwest;top=0;left=0;right=0;bottom=0;html=1;rounded=1;" vertex="1" parent="2m0mP7ySd1EQTY95ZOPa-151">
          <mxGeometry y="180" width="180" height="30" as="geometry" />
        </mxCell>
        <mxCell id="2m0mP7ySd1EQTY95ZOPa-169" value="" style="shape=partialRectangle;connectable=0;fillColor=none;top=0;left=0;bottom=0;right=0;editable=1;overflow=hidden;html=1;whiteSpace=wrap;rounded=1;" vertex="1" parent="2m0mP7ySd1EQTY95ZOPa-168">
          <mxGeometry width="60" height="30" as="geometry">
            <mxRectangle width="60" height="30" as="alternateBounds" />
          </mxGeometry>
        </mxCell>
        <mxCell id="2m0mP7ySd1EQTY95ZOPa-170" value="PhotoUri" style="shape=partialRectangle;connectable=0;fillColor=none;top=0;left=0;bottom=0;right=0;align=left;spacingLeft=6;overflow=hidden;html=1;whiteSpace=wrap;rounded=1;" vertex="1" parent="2m0mP7ySd1EQTY95ZOPa-168">
          <mxGeometry x="60" width="120" height="30" as="geometry">
            <mxRectangle width="120" height="30" as="alternateBounds" />
          </mxGeometry>
        </mxCell>
        <mxCell id="2m0mP7ySd1EQTY95ZOPa-164" style="edgeStyle=orthogonalEdgeStyle;rounded=1;orthogonalLoop=1;jettySize=auto;html=1;entryX=1;entryY=0.5;entryDx=0;entryDy=0;endArrow=ERoneToMany;endFill=0;" edge="1" parent="1" source="2m0mP7ySd1EQTY95ZOPa-152" target="2m0mP7ySd1EQTY95ZOPa-120">
          <mxGeometry relative="1" as="geometry" />
        </mxCell>
        <mxCell id="2m0mP7ySd1EQTY95ZOPa-171" value="Usuario" style="shape=table;startSize=30;container=1;collapsible=1;childLayout=tableLayout;fixedRows=1;rowLines=0;fontStyle=1;align=center;resizeLast=1;html=1;rounded=1;" vertex="1" parent="1">
          <mxGeometry x="520" y="-640" width="180" height="240" as="geometry" />
        </mxCell>
        <mxCell id="2m0mP7ySd1EQTY95ZOPa-172" value="" style="shape=tableRow;horizontal=0;startSize=0;swimlaneHead=0;swimlaneBody=0;fillColor=none;collapsible=0;dropTarget=0;points=[[0,0.5],[1,0.5]];portConstraint=eastwest;top=0;left=0;right=0;bottom=1;rounded=1;" vertex="1" parent="2m0mP7ySd1EQTY95ZOPa-171">
          <mxGeometry y="30" width="180" height="30" as="geometry" />
        </mxCell>
        <mxCell id="2m0mP7ySd1EQTY95ZOPa-173" value="PK" style="shape=partialRectangle;connectable=0;fillColor=none;top=0;left=0;bottom=0;right=0;fontStyle=1;overflow=hidden;whiteSpace=wrap;html=1;rounded=1;" vertex="1" parent="2m0mP7ySd1EQTY95ZOPa-172">
          <mxGeometry width="30" height="30" as="geometry">
            <mxRectangle width="30" height="30" as="alternateBounds" />
          </mxGeometry>
        </mxCell>
        <mxCell id="2m0mP7ySd1EQTY95ZOPa-174" value="IdUsuario" style="shape=partialRectangle;connectable=0;fillColor=none;top=0;left=0;bottom=0;right=0;align=left;spacingLeft=6;fontStyle=5;overflow=hidden;whiteSpace=wrap;html=1;rounded=1;" vertex="1" parent="2m0mP7ySd1EQTY95ZOPa-172">
          <mxGeometry x="30" width="150" height="30" as="geometry">
            <mxRectangle width="150" height="30" as="alternateBounds" />
          </mxGeometry>
        </mxCell>
        <mxCell id="2m0mP7ySd1EQTY95ZOPa-175" value="" style="shape=tableRow;horizontal=0;startSize=0;swimlaneHead=0;swimlaneBody=0;fillColor=none;collapsible=0;dropTarget=0;points=[[0,0.5],[1,0.5]];portConstraint=eastwest;top=0;left=0;right=0;bottom=0;rounded=1;" vertex="1" parent="2m0mP7ySd1EQTY95ZOPa-171">
          <mxGeometry y="60" width="180" height="30" as="geometry" />
        </mxCell>
        <mxCell id="2m0mP7ySd1EQTY95ZOPa-176" value="" style="shape=partialRectangle;connectable=0;fillColor=none;top=0;left=0;bottom=0;right=0;editable=1;overflow=hidden;whiteSpace=wrap;html=1;rounded=1;" vertex="1" parent="2m0mP7ySd1EQTY95ZOPa-175">
          <mxGeometry width="30" height="30" as="geometry">
            <mxRectangle width="30" height="30" as="alternateBounds" />
          </mxGeometry>
        </mxCell>
        <mxCell id="2m0mP7ySd1EQTY95ZOPa-177" value="Name" style="shape=partialRectangle;connectable=0;fillColor=none;top=0;left=0;bottom=0;right=0;align=left;spacingLeft=6;overflow=hidden;whiteSpace=wrap;html=1;rounded=1;" vertex="1" parent="2m0mP7ySd1EQTY95ZOPa-175">
          <mxGeometry x="30" width="150" height="30" as="geometry">
            <mxRectangle width="150" height="30" as="alternateBounds" />
          </mxGeometry>
        </mxCell>
        <mxCell id="2m0mP7ySd1EQTY95ZOPa-178" value="" style="shape=tableRow;horizontal=0;startSize=0;swimlaneHead=0;swimlaneBody=0;fillColor=none;collapsible=0;dropTarget=0;points=[[0,0.5],[1,0.5]];portConstraint=eastwest;top=0;left=0;right=0;bottom=0;rounded=1;" vertex="1" parent="2m0mP7ySd1EQTY95ZOPa-171">
          <mxGeometry y="90" width="180" height="30" as="geometry" />
        </mxCell>
        <mxCell id="2m0mP7ySd1EQTY95ZOPa-179" value="" style="shape=partialRectangle;connectable=0;fillColor=none;top=0;left=0;bottom=0;right=0;editable=1;overflow=hidden;whiteSpace=wrap;html=1;rounded=1;" vertex="1" parent="2m0mP7ySd1EQTY95ZOPa-178">
          <mxGeometry width="30" height="30" as="geometry">
            <mxRectangle width="30" height="30" as="alternateBounds" />
          </mxGeometry>
        </mxCell>
        <mxCell id="2m0mP7ySd1EQTY95ZOPa-180" value="Cpf" style="shape=partialRectangle;connectable=0;fillColor=none;top=0;left=0;bottom=0;right=0;align=left;spacingLeft=6;overflow=hidden;whiteSpace=wrap;html=1;rounded=1;" vertex="1" parent="2m0mP7ySd1EQTY95ZOPa-178">
          <mxGeometry x="30" width="150" height="30" as="geometry">
            <mxRectangle width="150" height="30" as="alternateBounds" />
          </mxGeometry>
        </mxCell>
        <mxCell id="2m0mP7ySd1EQTY95ZOPa-181" value="" style="shape=tableRow;horizontal=0;startSize=0;swimlaneHead=0;swimlaneBody=0;fillColor=none;collapsible=0;dropTarget=0;points=[[0,0.5],[1,0.5]];portConstraint=eastwest;top=0;left=0;right=0;bottom=0;rounded=1;" vertex="1" parent="2m0mP7ySd1EQTY95ZOPa-171">
          <mxGeometry y="120" width="180" height="30" as="geometry" />
        </mxCell>
        <mxCell id="2m0mP7ySd1EQTY95ZOPa-182" value="" style="shape=partialRectangle;connectable=0;fillColor=none;top=0;left=0;bottom=0;right=0;editable=1;overflow=hidden;whiteSpace=wrap;html=1;rounded=1;" vertex="1" parent="2m0mP7ySd1EQTY95ZOPa-181">
          <mxGeometry width="30" height="30" as="geometry">
            <mxRectangle width="30" height="30" as="alternateBounds" />
          </mxGeometry>
        </mxCell>
        <mxCell id="2m0mP7ySd1EQTY95ZOPa-183" value="Rg" style="shape=partialRectangle;connectable=0;fillColor=none;top=0;left=0;bottom=0;right=0;align=left;spacingLeft=6;overflow=hidden;whiteSpace=wrap;html=1;rounded=1;" vertex="1" parent="2m0mP7ySd1EQTY95ZOPa-181">
          <mxGeometry x="30" width="150" height="30" as="geometry">
            <mxRectangle width="150" height="30" as="alternateBounds" />
          </mxGeometry>
        </mxCell>
        <mxCell id="2m0mP7ySd1EQTY95ZOPa-185" value="" style="shape=tableRow;horizontal=0;startSize=0;swimlaneHead=0;swimlaneBody=0;fillColor=none;collapsible=0;dropTarget=0;points=[[0,0.5],[1,0.5]];portConstraint=eastwest;top=0;left=0;right=0;bottom=0;rounded=1;" vertex="1" parent="2m0mP7ySd1EQTY95ZOPa-171">
          <mxGeometry y="150" width="180" height="30" as="geometry" />
        </mxCell>
        <mxCell id="2m0mP7ySd1EQTY95ZOPa-186" value="" style="shape=partialRectangle;connectable=0;fillColor=none;top=0;left=0;bottom=0;right=0;editable=1;overflow=hidden;whiteSpace=wrap;html=1;rounded=1;" vertex="1" parent="2m0mP7ySd1EQTY95ZOPa-185">
          <mxGeometry width="30" height="30" as="geometry">
            <mxRectangle width="30" height="30" as="alternateBounds" />
          </mxGeometry>
        </mxCell>
        <mxCell id="2m0mP7ySd1EQTY95ZOPa-187" value="Birthdate" style="shape=partialRectangle;connectable=0;fillColor=none;top=0;left=0;bottom=0;right=0;align=left;spacingLeft=6;overflow=hidden;whiteSpace=wrap;html=1;rounded=1;" vertex="1" parent="2m0mP7ySd1EQTY95ZOPa-185">
          <mxGeometry x="30" width="150" height="30" as="geometry">
            <mxRectangle width="150" height="30" as="alternateBounds" />
          </mxGeometry>
        </mxCell>
        <mxCell id="2m0mP7ySd1EQTY95ZOPa-188" value="" style="shape=tableRow;horizontal=0;startSize=0;swimlaneHead=0;swimlaneBody=0;fillColor=none;collapsible=0;dropTarget=0;points=[[0,0.5],[1,0.5]];portConstraint=eastwest;top=0;left=0;right=0;bottom=0;rounded=1;" vertex="1" parent="2m0mP7ySd1EQTY95ZOPa-171">
          <mxGeometry y="180" width="180" height="30" as="geometry" />
        </mxCell>
        <mxCell id="2m0mP7ySd1EQTY95ZOPa-189" value="" style="shape=partialRectangle;connectable=0;fillColor=none;top=0;left=0;bottom=0;right=0;editable=1;overflow=hidden;whiteSpace=wrap;html=1;rounded=1;" vertex="1" parent="2m0mP7ySd1EQTY95ZOPa-188">
          <mxGeometry width="30" height="30" as="geometry">
            <mxRectangle width="30" height="30" as="alternateBounds" />
          </mxGeometry>
        </mxCell>
        <mxCell id="2m0mP7ySd1EQTY95ZOPa-190" value="Email" style="shape=partialRectangle;connectable=0;fillColor=none;top=0;left=0;bottom=0;right=0;align=left;spacingLeft=6;overflow=hidden;whiteSpace=wrap;html=1;rounded=1;" vertex="1" parent="2m0mP7ySd1EQTY95ZOPa-188">
          <mxGeometry x="30" width="150" height="30" as="geometry">
            <mxRectangle width="150" height="30" as="alternateBounds" />
          </mxGeometry>
        </mxCell>
        <mxCell id="2m0mP7ySd1EQTY95ZOPa-191" value="" style="shape=tableRow;horizontal=0;startSize=0;swimlaneHead=0;swimlaneBody=0;fillColor=none;collapsible=0;dropTarget=0;points=[[0,0.5],[1,0.5]];portConstraint=eastwest;top=0;left=0;right=0;bottom=0;rounded=1;" vertex="1" parent="2m0mP7ySd1EQTY95ZOPa-171">
          <mxGeometry y="210" width="180" height="30" as="geometry" />
        </mxCell>
        <mxCell id="2m0mP7ySd1EQTY95ZOPa-192" value="" style="shape=partialRectangle;connectable=0;fillColor=none;top=0;left=0;bottom=0;right=0;editable=1;overflow=hidden;whiteSpace=wrap;html=1;rounded=1;" vertex="1" parent="2m0mP7ySd1EQTY95ZOPa-191">
          <mxGeometry width="30" height="30" as="geometry">
            <mxRectangle width="30" height="30" as="alternateBounds" />
          </mxGeometry>
        </mxCell>
        <mxCell id="2m0mP7ySd1EQTY95ZOPa-193" value="Password" style="shape=partialRectangle;connectable=0;fillColor=none;top=0;left=0;bottom=0;right=0;align=left;spacingLeft=6;overflow=hidden;whiteSpace=wrap;html=1;rounded=1;" vertex="1" parent="2m0mP7ySd1EQTY95ZOPa-191">
          <mxGeometry x="30" width="150" height="30" as="geometry">
            <mxRectangle width="150" height="30" as="alternateBounds" />
          </mxGeometry>
        </mxCell>
        <mxCell id="2m0mP7ySd1EQTY95ZOPa-184" style="edgeStyle=orthogonalEdgeStyle;rounded=1;orthogonalLoop=1;jettySize=auto;html=1;entryX=1;entryY=0.5;entryDx=0;entryDy=0;endArrow=none;endFill=0;" edge="1" parent="1" source="2m0mP7ySd1EQTY95ZOPa-172" target="2m0mP7ySd1EQTY95ZOPa-155">
          <mxGeometry relative="1" as="geometry" />
        </mxCell>
        <mxCell id="2m0mP7ySd1EQTY95ZOPa-197" value="FÃ­sico" style="rounded=1;whiteSpace=wrap;html=1;fillColor=#dae8fc;strokeColor=#6c8ebf;fontSize=15;" vertex="1" parent="1">
          <mxGeometry x="38.5" y="-320" width="121.5" height="50" as="geometry" />
        </mxCell>
      </root>
    </mxGraphModel>
  </diagram>
</mxfile>
